<svg xmlns="http://www.w3.org/2000/svg" version="1.1" xmlns:xlink="http://www.w3.org/1999/xlink" xmlns:svgjs="http://svgjs.dev/svgjs" width="2000" height="1247" viewBox="0 0 2000 1247"><g transform="matrix(1,0,0,1,-1.2121212121212466,105.62933329243856)"><svg viewBox="0 0 396 247" data-background-color="#102e44" preserveAspectRatio="xMidYMid meet" height="1247" width="2000" xmlns="http://www.w3.org/2000/svg" xmlns:xlink="http://www.w3.org/1999/xlink"><defs></defs><g id="tight-bounds" transform="matrix(1,0,0,1,0.2400000000000091,-0.09999999999999432)"><svg viewBox="0 0 395.52 247.2" height="247.2" width="395.52"><g><svg></svg></g><g><svg viewBox="0 0 395.52 247.2" height="247.2" width="395.52"><g transform="matrix(1,0,0,1,75.54432,106.8361390339997)"><svg viewBox="0 0 244.43135999999998 33.52772193200058" height="33.52772193200058" width="244.43135999999998"><g><svg viewBox="0 0 244.43135999999998 33.52772193200058" height="33.52772193200058" width="244.43135999999998"><g><svg viewBox="0 0 244.43135999999998 33.52772193200058" height="33.52772193200058" width="244.43135999999998"><g><svg viewBox="0 0 244.43135999999998 33.52772193200058" height="33.52772193200058" width="244.43135999999998"><g><svg viewBox="0 0 244.43135999999998 33.52772193200058" height="33.52772193200058" width="244.43135999999998"><g><svg viewBox="0 0 244.43135999999998 33.52772193200058" height="33.52772193200058" width="244.43135999999998"><g transform="matrix(1,0,0,1,0,0)"><svg width="244.43135999999998" viewBox="2.4000000953674316 -36 342.6199951171875 47" height="33.52772193200058" data-palette-color="#ffffff"><path d="M14.6 0.6L14.6 0.6Q11.05 0.6 8.3-1.03 5.55-2.65 3.98-5.55 2.4-8.45 2.4-12.4L2.4-12.4Q2.4-16.3 3.95-19.23 5.5-22.15 8.28-23.78 11.05-25.4 14.7-25.4L14.7-25.4Q18.3-25.4 20.93-23.78 23.55-22.15 24.95-19.5 26.35-16.85 26.35-13.8L26.35-13.8Q26.35-13.25 26.33-12.7 26.3-12.15 26.3-11.45L26.3-11.45 6.55-11.45Q6.7-8.6 7.88-6.73 9.05-4.85 10.83-3.9 12.6-2.95 14.6-2.95L14.6-2.95Q17.2-2.95 18.95-4.15 20.7-5.35 21.5-7.4L21.5-7.4 25.65-7.4Q24.65-3.95 21.83-1.68 19 0.6 14.6 0.6ZM14.6-21.85L14.6-21.85Q11.6-21.85 9.28-20.03 6.95-18.2 6.6-14.7L6.6-14.7 22.2-14.7Q22.05-18.05 19.9-19.95 17.75-21.85 14.6-21.85ZM32.8 0L28.25 0 36.85-12.4 28.25-24.8 32.8-24.8 39.75-14.55 46.75-24.8 51.25-24.8 42.65-12.4 51.25 0 46.75 0 39.75-10.25 32.8 0ZM59.85 11L55.65 11 55.65-24.8 59.45-24.8 59.85-20.7Q61.05-22.5 63.27-23.95 65.5-25.4 68.95-25.4L68.95-25.4Q72.65-25.4 75.4-23.7 78.15-22 79.67-19.05 81.2-16.1 81.2-12.35L81.2-12.35Q81.2-8.6 79.67-5.68 78.15-2.75 75.37-1.07 72.6 0.6 68.9 0.6L68.9 0.6Q65.85 0.6 63.47-0.65 61.1-1.9 59.85-4.15L59.85-4.15 59.85 11ZM68.45-3.05L68.45-3.05Q70.95-3.05 72.85-4.23 74.75-5.4 75.85-7.5 76.95-9.6 76.95-12.4L76.95-12.4Q76.95-15.2 75.85-17.3 74.75-19.4 72.85-20.58 70.95-21.75 68.45-21.75L68.45-21.75Q65.95-21.75 64.05-20.58 62.15-19.4 61.05-17.3 59.95-15.2 59.95-12.4L59.95-12.4Q59.95-9.6 61.05-7.5 62.15-5.4 64.05-4.23 65.95-3.05 68.45-3.05ZM91.24 0L87.04 0 87.04-36 91.24-36 91.24 0ZM109.44 0.6L109.44 0.6Q105.94 0.6 103.14-1 100.34-2.6 98.72-5.53 97.09-8.45 97.09-12.4L97.09-12.4Q97.09-16.35 98.74-19.28 100.39-22.2 103.22-23.8 106.04-25.4 109.54-25.4L109.54-25.4Q113.04-25.4 115.84-23.8 118.64-22.2 120.27-19.28 121.89-16.35 121.89-12.4L121.89-12.4Q121.89-8.45 120.24-5.53 118.59-2.6 115.77-1 112.94 0.6 109.44 0.6ZM109.44-3L109.44-3Q111.59-3 113.44-4.05 115.29-5.1 116.44-7.2 117.59-9.3 117.59-12.4L117.59-12.4Q117.59-15.5 116.47-17.6 115.34-19.7 113.49-20.75 111.64-21.8 109.54-21.8L109.54-21.8Q107.39-21.8 105.54-20.75 103.69-19.7 102.54-17.6 101.39-15.5 101.39-12.4L101.39-12.4Q101.39-9.3 102.54-7.2 103.69-5.1 105.52-4.05 107.34-3 109.44-3ZM131.94 0L127.74 0 127.74-24.8 131.54-24.8 131.89-20.05Q133.04-22.5 135.39-23.95 137.74-25.4 141.19-25.4L141.19-25.4 141.19-21 140.04-21Q137.84-21 135.99-20.23 134.14-19.45 133.04-17.6 131.94-15.75 131.94-12.5L131.94-12.5 131.94 0ZM156.09 0.6L156.09 0.6Q152.54 0.6 149.79-1.03 147.04-2.65 145.46-5.55 143.89-8.45 143.89-12.4L143.89-12.4Q143.89-16.3 145.44-19.23 146.99-22.15 149.76-23.78 152.54-25.4 156.19-25.4L156.19-25.4Q159.79-25.4 162.41-23.78 165.04-22.15 166.44-19.5 167.84-16.85 167.84-13.8L167.84-13.8Q167.84-13.25 167.81-12.7 167.79-12.15 167.79-11.45L167.79-11.45 148.04-11.45Q148.19-8.6 149.36-6.73 150.54-4.85 152.31-3.9 154.09-2.95 156.09-2.95L156.09-2.95Q158.69-2.95 160.44-4.15 162.19-5.35 162.99-7.4L162.99-7.4 167.14-7.4Q166.14-3.95 163.31-1.68 160.49 0.6 156.09 0.6ZM156.09-21.85L156.09-21.85Q153.09-21.85 150.76-20.03 148.44-18.2 148.09-14.7L148.09-14.7 163.69-14.7Q163.54-18.05 161.39-19.95 159.24-21.85 156.09-21.85ZM181.63 0.6L181.63 0.6Q178.53 0.6 176.48-0.45 174.43-1.5 173.43-3.25 172.43-5 172.43-7.05L172.43-7.05Q172.43-10.85 175.33-12.9 178.23-14.95 183.23-14.95L183.23-14.95 189.93-14.95 189.93-15.25Q189.93-18.5 188.23-20.18 186.53-21.85 183.68-21.85L183.68-21.85Q181.23-21.85 179.46-20.63 177.68-19.4 177.23-17.05L177.23-17.05 172.93-17.05Q173.18-19.75 174.76-21.6 176.33-23.45 178.68-24.43 181.03-25.4 183.68-25.4L183.68-25.4Q188.88-25.4 191.51-22.63 194.13-19.85 194.13-15.25L194.13-15.25 194.13 0 190.38 0 190.13-4.45Q189.08-2.35 187.06-0.88 185.03 0.6 181.63 0.6ZM182.28-2.95L182.28-2.95Q184.68-2.95 186.41-4.2 188.13-5.45 189.03-7.45 189.93-9.45 189.93-11.65L189.93-11.65 189.93-11.7 183.58-11.7Q179.88-11.7 178.36-10.43 176.83-9.15 176.83-7.25L176.83-7.25Q176.83-5.3 178.26-4.13 179.68-2.95 182.28-2.95ZM205.98 0L201.78 0 201.78-21.25 198.03-21.25 198.03-24.8 201.78-24.8 201.78-29.1Q201.78-32.7 203.58-34.35 205.38-36 208.83-36L208.83-36 211.33-36 211.33-32.4 209.48-32.4Q207.58-32.4 206.78-31.63 205.98-30.85 205.98-29L205.98-29 205.98-24.8 212.08-24.8 212.08-21.25 205.98-21.25 205.98 0ZM221.28 0L217.08 0 217.08-24.8 220.88-24.8 221.23-20.05Q222.38-22.5 224.73-23.95 227.08-25.4 230.53-25.4L230.53-25.4 230.53-21 229.38-21Q227.18-21 225.33-20.23 223.48-19.45 222.38-17.6 221.28-15.75 221.28-12.5L221.28-12.5 221.28 0ZM237.78-30.3L237.78-30.3Q236.53-30.3 235.7-31.13 234.88-31.95 234.88-33.2L234.88-33.2Q234.88-34.4 235.7-35.2 236.53-36 237.78-36L237.78-36Q238.98-36 239.83-35.2 240.68-34.4 240.68-33.2L240.68-33.2Q240.68-31.95 239.83-31.13 238.98-30.3 237.78-30.3ZM239.88 0L235.68 0 235.68-24.8 239.88-24.8 239.88 0ZM260.77 0L256.97 0Q253.57 0 251.62-1.65 249.67-3.3 249.67-7.6L249.67-7.6 249.67-21.25 245.37-21.25 245.37-24.8 249.67-24.8 250.22-30.75 253.87-30.75 253.87-24.8 261.17-24.8 261.17-21.25 253.87-21.25 253.87-7.6Q253.87-5.25 254.82-4.42 255.77-3.6 258.17-3.6L258.17-3.6 260.77-3.6 260.77 0ZM276.97 0.6L276.97 0.6Q273.42 0.6 270.67-1.03 267.92-2.65 266.35-5.55 264.77-8.45 264.77-12.4L264.77-12.4Q264.77-16.3 266.32-19.23 267.87-22.15 270.65-23.78 273.42-25.4 277.07-25.4L277.07-25.4Q280.67-25.4 283.3-23.78 285.92-22.15 287.32-19.5 288.72-16.85 288.72-13.8L288.72-13.8Q288.72-13.25 288.7-12.7 288.67-12.15 288.67-11.45L288.67-11.45 268.92-11.45Q269.07-8.6 270.25-6.73 271.42-4.85 273.2-3.9 274.97-2.95 276.97-2.95L276.97-2.95Q279.57-2.95 281.32-4.15 283.07-5.35 283.87-7.4L283.87-7.4 288.02-7.4Q287.02-3.95 284.2-1.68 281.37 0.6 276.97 0.6ZM276.97-21.85L276.97-21.85Q273.97-21.85 271.65-20.03 269.32-18.2 268.97-14.7L268.97-14.7 284.57-14.7Q284.42-18.05 282.27-19.95 280.12-21.85 276.97-21.85ZM305.67 0.6L305.67 0.6Q302.12 0.6 299.29-1.03 296.47-2.65 294.84-5.58 293.22-8.5 293.22-12.4L293.22-12.4Q293.22-16.3 294.84-19.23 296.47-22.15 299.29-23.78 302.12-25.4 305.67-25.4L305.67-25.4Q310.07-25.4 313.09-23.1 316.12-20.8 316.92-16.95L316.92-16.95 312.62-16.95Q312.12-19.25 310.17-20.53 308.22-21.8 305.62-21.8L305.62-21.8Q303.52-21.8 301.67-20.75 299.82-19.7 298.67-17.6 297.52-15.5 297.52-12.4L297.52-12.4Q297.52-9.3 298.67-7.2 299.82-5.1 301.67-4.03 303.52-2.95 305.62-2.95L305.62-2.95Q308.22-2.95 310.17-4.23 312.12-5.5 312.62-7.85L312.62-7.85 316.92-7.85Q316.17-4.1 313.12-1.75 310.07 0.6 305.67 0.6ZM326.97 0L322.77 0 322.77-36 326.97-36 326.97-20.55Q328.22-22.85 330.52-24.13 332.82-25.4 335.52-25.4L335.52-25.4Q339.82-25.4 342.42-22.73 345.02-20.05 345.02-14.5L345.02-14.5 345.02 0 340.87 0 340.87-14.05Q340.87-21.8 334.62-21.8L334.62-21.8Q331.37-21.8 329.17-19.48 326.97-17.15 326.97-12.85L326.97-12.85 326.97 0Z" opacity="1" transform="matrix(1,0,0,1,0,0)" fill="#ffffff" class="undefined-text-0" data-fill-palette-color="primary" id="text-0"></path></svg></g></svg></g></svg></g></svg></g><g></g></svg></g></svg></g></svg></g><g><path d="M78.062 98.921A122.216 122.216 0 0 1 317.458 98.921L314.434 98.921A119.192 119.192 0 0 0 81.086 98.921L78.062 98.921M78.062 148.279A122.216 122.216 0 0 0 317.458 148.279L314.434 148.279A119.192 119.192 0 0 1 81.086 148.279L78.062 148.279" fill="#ffffff" stroke="transparent" data-fill-palette-color="tertiary"></path></g></svg></g></svg><rect width="395.52" height="247.2" fill="none" stroke="none" visibility="hidden"></rect></g></svg></g></svg>